<?xml version="1.0" standalone="yes"?><svg xmlns="http://www.w3.org/2000/svg" version="1.1" width="203" height="203" viewBox="0 0 203 203" shape-rendering="crispEdges"><rect x="0" y="0" width="203" height="203" fill="#FFFFFF"/><path fill="#000000" d="M28 28h7v7H28V28M35 28h7v7H35V28M42 28h7v7H42V28M49 28h7v7H49V28M56 28h7v7H56V28M63 28h7v7H63V28M70 28h7v7H70V28M84 28h7v7H84V28M91 28h7v7H91V28M105 28h7v7H105V28M112 28h7v7H112V28M126 28h7v7H126V28M133 28h7v7H133V28M140 28h7v7H140V28M147 28h7v7H147V28M154 28h7v7H154V28M161 28h7v7H161V28M168 28h7v7H168V28M28 35h7v7H28V35M70 35h7v7H70V35M84 35h7v7H84V35M105 35h7v7H105V35M112 35h7v7H112V35M126 35h7v7H126V35M168 35h7v7H168V35M28 42h7v7H28V42M42 42h7v7H42V42M49 42h7v7H49V42M56 42h7v7H56V42M70 42h7v7H70V42M91 42h7v7H91V42M105 42h7v7H105V42M126 42h7v7H126V42M140 42h7v7H140V42M147 42h7v7H147V42M154 42h7v7H154V42M168 42h7v7H168V42M28 49h7v7H28V49M42 49h7v7H42V49M49 49h7v7H49V49M56 49h7v7H56V49M70 49h7v7H70V49M84 49h7v7H84V49M91 49h7v7H91V49M98 49h7v7H98V49M126 49h7v7H126V49M140 49h7v7H140V49M147 49h7v7H147V49M154 49h7v7H154V49M168 49h7v7H168V49M28 56h7v7H28V56M42 56h7v7H42V56M49 56h7v7H49V56M56 56h7v7H56V56M70 56h7v7H70V56M91 56h7v7H91V56M98 56h7v7H98V56M126 56h7v7H126V56M140 56h7v7H140V56M147 56h7v7H147V56M154 56h7v7H154V56M168 56h7v7H168V56M28 63h7v7H28V63M70 63h7v7H70V63M98 63h7v7H98V63M126 63h7v7H126V63M168 63h7v7H168V63M28 70h7v7H28V70M35 70h7v7H35V70M42 70h7v7H42V70M49 70h7v7H49V70M56 70h7v7H56V70M63 70h7v7H63V70M70 70h7v7H70V70M84 70h7v7H84V70M98 70h7v7H98V70M112 70h7v7H112V70M126 70h7v7H126V70M133 70h7v7H133V70M140 70h7v7H140V70M147 70h7v7H147V70M154 70h7v7H154V70M161 70h7v7H161V70M168 70h7v7H168V70M84 77h7v7H84V77M98 77h7v7H98V77M28 84h7v7H28V84M42 84h7v7H42V84M49 84h7v7H49V84M63 84h7v7H63V84M70 84h7v7H70V84M77 84h7v7H77V84M91 84h7v7H91V84M98 84h7v7H98V84M126 84h7v7H126V84M147 84h7v7H147V84M161 84h7v7H161V84M168 84h7v7H168V84M49 91h7v7H49V91M63 91h7v7H63V91M77 91h7v7H77V91M84 91h7v7H84V91M91 91h7v7H91V91M98 91h7v7H98V91M112 91h7v7H112V91M140 91h7v7H140V91M147 91h7v7H147V91M154 91h7v7H154V91M168 91h7v7H168V91M35 98h7v7H35V98M49 98h7v7H49V98M70 98h7v7H70V98M77 98h7v7H77V98M112 98h7v7H112V98M126 98h7v7H126V98M133 98h7v7H133V98M161 98h7v7H161V98M168 98h7v7H168V98M28 105h7v7H28V105M42 105h7v7H42V105M84 105h7v7H84V105M91 105h7v7H91V105M112 105h7v7H112V105M147 105h7v7H147V105M161 105h7v7H161V105M35 112h7v7H35V112M42 112h7v7H42V112M49 112h7v7H49V112M56 112h7v7H56V112M70 112h7v7H70V112M77 112h7v7H77V112M84 112h7v7H84V112M105 112h7v7H105V112M119 112h7v7H119V112M126 112h7v7H126V112M140 112h7v7H140V112M147 112h7v7H147V112M161 112h7v7H161V112M84 119h7v7H84V119M98 119h7v7H98V119M119 119h7v7H119V119M126 119h7v7H126V119M140 119h7v7H140V119M147 119h7v7H147V119M161 119h7v7H161V119M28 126h7v7H28V126M35 126h7v7H35V126M42 126h7v7H42V126M49 126h7v7H49V126M56 126h7v7H56V126M63 126h7v7H63V126M70 126h7v7H70V126M84 126h7v7H84V126M91 126h7v7H91V126M133 126h7v7H133V126M140 126h7v7H140V126M147 126h7v7H147V126M154 126h7v7H154V126M28 133h7v7H28V133M70 133h7v7H70V133M84 133h7v7H84V133M98 133h7v7H98V133M105 133h7v7H105V133M112 133h7v7H112V133M119 133h7v7H119V133M147 133h7v7H147V133M154 133h7v7H154V133M168 133h7v7H168V133M28 140h7v7H28V140M42 140h7v7H42V140M49 140h7v7H49V140M56 140h7v7H56V140M70 140h7v7H70V140M91 140h7v7H91V140M98 140h7v7H98V140M105 140h7v7H105V140M119 140h7v7H119V140M140 140h7v7H140V140M154 140h7v7H154V140M28 147h7v7H28V147M42 147h7v7H42V147M49 147h7v7H49V147M56 147h7v7H56V147M70 147h7v7H70V147M84 147h7v7H84V147M98 147h7v7H98V147M147 147h7v7H147V147M161 147h7v7H161V147M28 154h7v7H28V154M42 154h7v7H42V154M49 154h7v7H49V154M56 154h7v7H56V154M70 154h7v7H70V154M84 154h7v7H84V154M105 154h7v7H105V154M154 154h7v7H154V154M28 161h7v7H28V161M70 161h7v7H70V161M91 161h7v7H91V161M105 161h7v7H105V161M112 161h7v7H112V161M126 161h7v7H126V161M133 161h7v7H133V161M140 161h7v7H140V161M168 161h7v7H168V161M28 168h7v7H28V168M35 168h7v7H35V168M42 168h7v7H42V168M49 168h7v7H49V168M56 168h7v7H56V168M63 168h7v7H63V168M70 168h7v7H70V168M84 168h7v7H84V168M105 168h7v7H105V168M112 168h7v7H112V168M119 168h7v7H119V168M133 168h7v7H133V168M147 168h7v7H147V168"/></svg>